<?xml version="1.0" standalone="no"?>
<!DOCTYPE svg PUBLIC "-//W3C//DTD SVG 20010904//EN"
 "http://www.w3.org/TR/2001/REC-SVG-20010904/DTD/svg10.dtd">
<svg version="1.0" xmlns="http://www.w3.org/2000/svg"
 width="1024.000000pt" height="1024.000000pt" viewBox="0 0 1024.000000 1024.000000"
 preserveAspectRatio="xMidYMid meet">
<metadata>
Created by potrace 1.11, written by Peter Selinger 2001-2013
</metadata>
<g transform="translate(0.000000,1024.000000) scale(0.100000,-0.100000)"
fill="#000000" stroke="none">
<path d="M3727 8634 c-1 -1 -60 -4 -132 -8 -71 -4 -141 -8 -155 -10 -14 -2
-56 -7 -95 -10 -91 -10 -124 -14 -220 -31 -44 -8 -98 -17 -119 -21 -21 -3
-100 -21 -175 -40 -75 -19 -144 -36 -154 -39 -10 -2 -79 -25 -154 -50 -528
-179 -982 -457 -1323 -810 -124 -129 -204 -227 -301 -370 -177 -261 -306 -586
-343 -865 -21 -154 -27 -397 -12 -505 3 -27 9 -68 11 -90 32 -235 162 -591
277 -757 10 -14 18 -29 18 -32 0 -4 5 -12 10 -19 6 -7 42 -57 81 -112 39 -55
100 -132 136 -172 l64 -72 -73 -143 c-77 -149 -129 -232 -291 -458 -139 -194
-121 -171 -189 -249 -50 -59 -60 -106 -32 -164 30 -62 56 -70 217 -63 78 4
156 8 172 10 28 3 134 18 145 21 3 1 25 5 50 9 47 8 246 56 315 76 38 11 177
62 220 80 107 45 242 109 307 146 44 24 88 44 97 44 9 0 66 -22 126 -49 292
-131 547 -209 895 -276 13 -3 40 -7 60 -10 19 -3 69 -10 110 -16 41 -6 86 -12
100 -14 213 -30 738 -27 995 5 130 17 149 19 175 25 34 7 57 11 110 20 340 53
822 227 1157 418 305 174 562 382 788 637 252 285 434 630 512 970 21 93 21
92 28 150 4 29 9 62 12 74 2 12 5 99 7 195 5 390 -91 742 -294 1081 -50 84
-54 89 -147 215 -365 497 -962 895 -1663 1109 -105 32 -290 78 -365 91 -16 3
-68 12 -115 20 -47 8 -105 17 -130 20 -183 22 -203 24 -330 31 -108 6 -378 12
-383 8z"/>
<path d="M7658 6348 c9 -72 8 -373 -1 -478 -11 -125 -20 -191 -36 -262 -6 -24
-12 -54 -15 -68 -12 -57 -17 -78 -36 -145 -101 -343 -298 -704 -540 -990 -414
-489 -960 -861 -1625 -1108 -139 -52 -345 -114 -439 -133 -10 -2 -42 -10 -70
-18 -28 -8 -89 -22 -136 -30 -47 -8 -96 -18 -110 -20 -13 -3 -40 -8 -60 -10
-347 -47 -392 -50 -730 -51 -250 0 -393 6 -487 21 -20 3 -33 2 -31 -3 61 -109
143 -234 215 -328 164 -214 411 -436 693 -621 233 -153 577 -317 855 -407 117
-38 336 -96 420 -111 17 -3 55 -10 85 -16 69 -13 93 -17 155 -25 28 -3 64 -9
81 -11 117 -18 338 -29 579 -28 211 0 428 9 444 18 3 2 33 7 66 10 33 4 67 9
75 11 8 2 37 6 63 10 27 3 92 15 144 25 53 11 105 22 117 24 59 11 303 80 341
96 11 5 36 13 55 19 58 16 209 76 324 129 l108 50 62 -35 c248 -139 577 -262
821 -308 237 -44 283 -49 463 -49 l124 -1 29 32 c62 70 52 119 -44 234 -101
121 -261 344 -337 469 -58 95 -161 293 -172 330 -3 8 26 50 65 95 145 167 287
389 368 577 31 71 78 197 84 228 1 3 7 25 14 50 59 205 80 493 55 730 -13 118
-16 139 -35 225 -55 249 -185 553 -305 710 -13 18 -24 35 -24 39 0 7 -123 167
-169 219 -34 40 -236 242 -287 287 -32 30 -83 71 -149 122 -212 165 -492 327
-740 428 -44 18 -84 36 -90 40 -5 4 -22 10 -37 14 -15 3 -40 11 -55 18 -15 6
-32 12 -38 14 -5 1 -30 9 -54 18 -24 9 -47 16 -52 16 -4 0 -5 -24 -1 -52z"/>
</g>
</svg>
